<svg width="34" height="40" viewBox="0 0 34 40" fill="none" xmlns="http://www.w3.org/2000/svg">
<path d="M29.4973 0H3.53967C1.65185 0 0 1.75 0 3.75V36.25C0 38.25 1.65185 40 3.53967 40H29.4973C31.3851 40 33.037 38.25 33.037 36.25V3.75C33.037 1.75 31.3851 0 29.4973 0ZM9.43913 34C9.43913 34.5 8.96717 35 8.49522 35H5.66348C5.19152 35 4.71956 34.5 4.71956 34V31C4.71956 30.5 5.19152 30 5.66348 30H8.49522C8.96717 30 9.43913 30.5 9.43913 31V34ZM9.43913 24C9.43913 24.5 8.96717 25 8.49522 25H5.66348C5.19152 25 4.71956 24.5 4.71956 24V21C4.71956 20.5 5.19152 20 5.66348 20H8.49522C8.96717 20 9.43913 20.5 9.43913 21V24ZM18.8783 34C18.8783 34.5 18.4063 35 17.9343 35H15.1026C14.6307 35 14.1587 34.5 14.1587 34V31C14.1587 30.5 14.6307 30 15.1026 30H17.9343C18.4063 30 18.8783 30.5 18.8783 31V34ZM18.8783 24C18.8783 24.5 18.4063 25 17.9343 25H15.1026C14.6307 25 14.1587 24.5 14.1587 24V21C14.1587 20.5 14.6307 20 15.1026 20H17.9343C18.4063 20 18.8783 20.5 18.8783 21V24ZM28.3174 34C28.3174 34.5 27.8454 35 27.3735 35H24.5417C24.0698 35 23.5978 34.5 23.5978 34V21C23.5978 20.5 24.0698 20 24.5417 20H27.3735C27.8454 20 28.3174 20.5 28.3174 21V34ZM28.3174 14C28.3174 14.5 27.8454 15 27.3735 15H5.66348C5.19152 15 4.71956 14.5 4.71956 14V6C4.71956 5.5 5.19152 5 5.66348 5H27.3735C27.8454 5 28.3174 5.5 28.3174 6V14Z" fill="#3652AD"/>
</svg>
