
<svg width="36" height="38" viewBox="0 0 36 38" fill="none" xmlns="http://www.w3.org/2000/svg">
<path d="M17.8114 0.00100475C15.0874 -0.00426176 12.3987 0.659412 9.95286 1.9408C7.507 3.22219 5.36936 5.08702 3.70495 7.39136C2.04054 9.6957 0.893862 12.3779 0.353427 15.231C-0.187008 18.0841 -0.106747 21.0317 0.588014 23.8464C1.28277 26.661 2.57345 29.2675 4.36043 31.4645C6.14741 33.6615 8.3829 35.3904 10.8943 36.5176C13.4058 37.6449 16.126 38.1403 18.8451 37.9658C21.5642 37.7913 24.2094 36.9515 26.5765 35.5111H26.701H26.7899C30.2129 33.4288 32.8919 30.1908 34.4064 26.3053C35.921 22.4199 36.1853 18.107 35.1579 14.0436C34.1305 9.98025 31.8696 6.3965 28.73 3.85489C25.5904 1.31329 21.7499 -0.0422676 17.8114 0.00100475ZM19.5893 3.9339C22.7185 4.35796 25.627 5.88153 27.8574 8.265C30.0878 10.6485 31.5135 13.7566 31.9103 17.1006H19.5893V3.9339ZM17.8114 34.2001C14.2102 34.1739 10.7524 32.6888 8.13582 30.0446C5.51922 27.4004 3.93862 23.794 3.713 19.9531C3.48737 16.1123 4.63353 12.3229 6.92016 9.34983C9.20678 6.37672 12.4636 4.44122 16.0335 3.9339V19.0005C16.0405 19.228 16.0825 19.4527 16.1579 19.6655V19.8175V19.9505L23.2696 33.0032C21.5446 33.7922 19.6878 34.1993 17.8114 34.2001ZM26.3987 31.0842L20.8872 20.9005H31.9103C31.6709 22.9041 31.0602 24.8367 30.1139 26.5853C29.1675 28.3338 27.9046 29.8633 26.3987 31.0842Z" fill="#3652AD"/>
</svg>
